Coordinates
version=1
nRows=12
nColumns=23
inDegrees=yes

Units are S.I. units (second, meters, Newtons, ...)
If the header above contains a line with 'inDegrees', this indicates whether rotational values are in degrees (yes) or radians (no).

endheader
time	pelvis_tilt	pelvis_list	pelvis_rotation	pelvis_tx	pelvis_ty	pelvis_tz	hip_flexion_r	hip_adduction_r	hip_rotation_r	knee_angle_r	knee_angle_r_beta	ankle_angle_r	subtalar_angle_r	mtp_angle_r	hip_flexion_l	hip_adduction_l	hip_rotation_l	knee_angle_l	knee_angle_l_beta	ankle_angle_l	subtalar_angle_l	mtp_angle_l
      7.50000000	     -1.53723498	     -6.90834411	    -11.37352799	      2.48014858	      0.99698597	      1.05772412	     29.01588266	     11.55456942	     -3.33854617	     43.21726291	      0.75428353	     11.47885167	     -3.20111974	      0.00000000	     -3.74527446	     -9.83357567	    -13.72769019	    103.20346868	      1.80124033	     -9.53907262	    -12.73435528	      0.00000000
      7.50666667	     -1.24169367	     -7.04226158	    -11.08503751	      2.47723433	      0.99284677	      1.05725135	     28.43185130	     11.56909604	     -2.89331458	     45.88391085	      0.80082532	     13.57613796	     -4.05293148	      0.00000000	     -1.35918560	    -10.54305167	    -12.54620596	    106.23352285	      1.85412475	     -8.56587399	    -12.00244473	      0.00000000
      7.51333333	     -1.15964698	     -6.85595660	    -10.84824694	      2.47408497	      0.98894462	      1.05684064	     27.88495197	     11.30433637	     -2.36375996	     48.22097620	      0.84161480	     15.90220384	     -4.53168090	      0.00000000	      1.47281108	    -10.85581565	    -11.29355063	    108.98571158	      1.90215950	     -7.67146518	    -11.28187365	      0.00000000
      7.52000000	     -0.97111570	     -6.83651640	    -10.47036636	      2.47109909	      0.98601653	      1.05638460	     26.80397211	     11.13323713	     -1.98066850	     49.88843564	      0.87071746	     18.16493606	     -4.83128003	      0.00000000	      4.25873765	    -11.27977439	     -9.86380265	    111.38022134	      1.94395158	     -6.67783031	    -10.21693192	      0.00000000
      7.52666667	     -0.85582863	     -6.64313662	    -10.07392188	      2.46815555	      0.98370542	      1.05598488	     25.51660202	     10.77772168	     -1.58552592	     51.06993303	      0.89133848	     20.38165589	     -4.93084731	      0.00000000	      7.23651266	    -11.43780708	     -8.41238725	    113.40121089	      1.97922451	     -5.69436262	     -9.15551218	      0.00000000
      7.53333333	     -1.00983707	     -6.06165588	     -9.74054828	      2.46532667	      0.98171866	      1.05561893	     24.33305112	     10.02402416	     -1.16466451	     51.92106502	      0.90619354	     22.61279642	     -4.57710520	      0.00000000	     10.59955591	    -11.07290543	     -7.09265948	    115.02207225	      2.00751387	     -4.79923537	     -8.35464078	      0.00000000
      7.54000000	     -0.75192984	     -5.75052296	     -9.39333102	      2.46298052	      0.98124219	      1.05549037	     22.25557084	      9.58045185	     -0.60143185	     52.04887089	      0.90842417	     24.45910879	     -4.79985385	      0.00000000	     13.34235018	    -10.91795085	     -5.89227774	    116.11440206	      2.02657862	     -3.94088567	     -7.71603808	      0.00000000
      7.54666667	     -1.00290702	     -5.25502715	     -8.82349545	      2.46111566	      0.98083027	      1.05511472	     20.53847852	      8.79828034	     -0.54010726	     51.80056724	      0.90409045	     25.88971504	     -4.37479777	      0.00000000	     16.71197739	    -10.47383068	     -4.56221019	    116.89736814	      2.04024396	     -2.79575390	     -6.59409488	      0.00000000
      7.55333333	     -1.20572913	     -4.60979834	     -8.38680404	      2.45972582	      0.98127509	      1.05500830	     18.56595781	      7.88193685	     -0.38576979	     51.18988546	      0.89343204	     27.07193569	     -3.96385105	      0.00000000	     19.83407250	     -9.81265943	     -3.61859804	    117.15870086	      2.04480508	     -1.84453427	     -6.15857396	      0.00000000
      7.56000000	     -1.38886054	     -3.93580164	     -7.88902261	      2.45879232	      0.98249067	      1.05481083	     16.37782460	      6.89163965	     -0.35342609	     50.19026699	      0.87598541	     27.80855850	     -3.33807417	      0.00000000	     22.78674849	     -9.00854144	     -2.83171832	    116.99379898	      2.04192700	     -0.91513802	     -6.03351838	      0.00000000
      7.56666667	     -1.57216181	     -3.19543112	     -7.46701940	      2.45856545	      0.98452079	      1.05493648	     13.98753466	      5.91834041	     -0.17228702	     48.79198708	      0.85158082	     28.08479064	     -3.15525679	      0.00000000	     25.47225961	     -8.15928448	     -2.36885201	    116.35155981	      2.03071781	      0.02927915	     -6.09082163	      0.00000000
      7.57333333	     -1.96312538	     -2.43565082	     -7.23388103	      2.45859701	      0.98695028	      1.05537154	     11.73727604	      5.05595573	      0.24779715	     47.16150756	      0.82312359	     28.01449478	     -2.82939531	      0.00000000	     28.16494232	     -7.37049152	     -2.23800084	    115.34752743	      2.01319414	      1.03364805	     -6.35561827	      0.00000000
